HIERARCHY
ROOT Hips
{
	OFFSET 0.00000 0.00000 0.00000
	CHANNELS 6 Xposition Yposition Zposition Zrotation Yrotation Xrotation 
	JOINT LHipJoint
	{
		OFFSET 0 0 0
		CHANNELS 3 Zrotation Yrotation Xrotation
		JOINT LeftUpLeg
		{
			OFFSET 1.56857 -1.73443 1.15205
			CHANNELS 3 Zrotation Yrotation Xrotation
			JOINT LeftLeg
			{
				OFFSET 2.39362 -6.57643 0.00000
				CHANNELS 3 Zrotation Yrotation Xrotation
				JOINT LeftFoot
				{
					OFFSET 2.50952 -6.89485 0.00000
					CHANNELS 3 Zrotation Yrotation Xrotation
					JOINT LeftToeBase
					{
						OFFSET 0.17171 -0.47178 1.88682
						CHANNELS 3 Zrotation Yrotation Xrotation
						End Site
						{
							OFFSET 0.00000 -0.00000 0.98146
						}
					}
				}
			}
		}
	}
	JOINT RHipJoint
	{
		OFFSET 0 0 0
		CHANNELS 3 Zrotation Yrotation Xrotation
		JOINT RightUpLeg
		{
			OFFSET -1.28153 -1.73443 1.15205
			CHANNELS 3 Zrotation Yrotation Xrotation
			JOINT RightLeg
			{
				OFFSET -2.26861 -6.23296 0.00000
				CHANNELS 3 Zrotation Yrotation Xrotation
				JOINT RightFoot
				{
					OFFSET -2.54143 -6.98254 0.00000
					CHANNELS 3 Zrotation Yrotation Xrotation
					JOINT RightToeBase
					{
						OFFSET -0.23309 -0.64041 1.93119
						CHANNELS 3 Zrotation Yrotation Xrotation
						End Site
						{
							OFFSET -0.00000 -0.00000 1.02013
						}
					}
				}
			}
		}
	}
	JOINT LowerBack
	{
		OFFSET 0 0 0
		CHANNELS 3 Zrotation Yrotation Xrotation
		JOINT Spine
		{
			OFFSET -0.07096 2.10460 -0.27878
			CHANNELS 3 Zrotation Yrotation Xrotation
			JOINT Spine1
			{
				OFFSET -0.00826 2.13662 -0.08279
				CHANNELS 3 Zrotation Yrotation Xrotation
				JOINT Neck
				{
					OFFSET 0 0 0
					CHANNELS 3 Zrotation Yrotation Xrotation
					JOINT Neck1
					{
						OFFSET 0.03239 1.77799 0.24435
						CHANNELS 3 Zrotation Yrotation Xrotation
						JOINT Head
						{
							OFFSET 0.01026 1.74194 -0.49664
							CHANNELS 3 Zrotation Yrotation Xrotation
							End Site
							{
								OFFSET 0.00170 1.83057 -0.19653
							}
						}
					}
				}
				JOINT LeftShoulder
				{
					OFFSET 0 0 0
					CHANNELS 3 Zrotation Yrotation Xrotation
					JOINT LeftArm
					{
						OFFSET 3.19178 1.35907 -0.31412
						CHANNELS 3 Zrotation Yrotation Xrotation
						JOINT LeftForeArm
						{
							OFFSET 4.85247 -0.00000 -0.00000
							CHANNELS 3 Zrotation Yrotation Xrotation
							JOINT LeftHand
							{
								OFFSET 3.55584 -0.00000 0.00000
								CHANNELS 3 Zrotation Yrotation Xrotation
								JOINT LeftFingerBase
								{
									OFFSET 0 0 0
									CHANNELS 3 Zrotation Yrotation Xrotation
									JOINT LeftHandIndex1
									{
										OFFSET 0.69320 -0.00000 0.00000
										CHANNELS 3 Zrotation Yrotation Xrotation
										End Site
										{
											OFFSET 0.55888 -0.00000 0.00000
										}
									}
								}
								JOINT LThumb
								{
									OFFSET 0 0 0
									CHANNELS 3 Zrotation Yrotation Xrotation
									End Site
									{
										OFFSET 0.56741 -0.00000 0.56741
									}
								}
							}
						}
					}
				}
				JOINT RightShoulder
				{
					OFFSET 0 0 0
					CHANNELS 3 Zrotation Yrotation Xrotation
					JOINT RightArm
					{
						OFFSET -3.28999 1.24191 -0.26899
						CHANNELS 3 Zrotation Yrotation Xrotation
						JOINT RightForeArm
						{
							OFFSET -4.64462 -0.00000 0.00000
							CHANNELS 3 Zrotation Yrotation Xrotation
							JOINT RightHand
							{
								OFFSET -3.40703 -0.00000 0.00000
								CHANNELS 3 Zrotation Yrotation Xrotation
								JOINT RightFingerBase
								{
									OFFSET 0 0 0
									CHANNELS 3 Zrotation Yrotation Xrotation
									JOINT RightHandIndex1
									{
										OFFSET -0.61958 -0.00000 0.00000
										CHANNELS 3 Zrotation Yrotation Xrotation
										End Site
										{
											OFFSET -0.49952 -0.00000 0.00000
										}
									}
								}
								JOINT RThumb
								{
									OFFSET 0 0 0
									CHANNELS 3 Zrotation Yrotation Xrotation
									End Site
									{
										OFFSET -0.50715 -0.00000 0.50715
									}
								}
							}
						}
					}
				}
			}
		}
	}
}
MOTION
Frames: 10
Frame Time: .0083333
-30.4196 17.0395 1.2476 0 0 0 0 0 0 -21 0 0 0 0 0 0 0 0 0 0 0 0 0 0 21 0 0 0 0 0 0 0 0 0 0 0 0 0 0 0 0 0 0 0 0 0 0 -16 0 0 21 0 0 11 0 0 0 -8 0 0 0 0 0 0 0 0 0 0 0 0 0 0 0 0 0 0 0 0 8 0 0 0 0 0 0 0 0 0 0 0 0 0 0 0 0 0
-30.4196 17.0395 1.2476 86.6729 84.0747 86.5682 0.0000 0.0000 0.0000 -24.2863 6.0826 7.7913 0.0078 -0.5697 -1.5654 0.2224 6.2282 -13.3131 0.2526 -3.2337 -8.9301 0.0000 0.0000 0.0000 8.6581 -8.8736 5.8962 -0.0473 -1.4030 3.8584 -0.9730 2.2325 -18.0260 -0.0439 -1.3526 3.7196 -8.9113 1.6842 3.8603 -1.6426 1.9291 1.0449 3.1886 1.0075 -1.3158 6.7596 4.5738 -19.9722 -3.5976 5.6149 25.3151 -1.5465 2.8167 11.9301 0.0000 0.0000 0.0000 -88.1304 0.1335 35.4505 11.7367 -19.4085 -2.0139 -0.0000 -0.0000 18.2713 16.5171 -25.8224 -7.3600 -7.1250 0.0000 -0.0000 -8.0002 3.4228 7.5838 0.0000 0.0000 0.0000 87.7180 -3.1726 38.6501 -15.9649 25.4730 -3.6309 0.0000 0.0000 7.4420 -12.7455 -30.1989 6.4910 7.1250 -0.0000 -0.0000 21.1974 -59.5318 -7.7342
-30.4206 17.0390 1.2487 86.5603 84.0384 86.4618 0.0000 0.0000 0.0000 -24.3259 6.1047 7.7675 0.0077 -0.5649 -1.5523 0.2275 6.1551 -13.3224 0.2579 -3.2674 -9.0243 0.0000 0.0000 0.0000 8.6166 -8.8261 5.9133 -0.0465 -1.3922 3.8286 -0.9728 2.2488 -18.0201 -0.0435 -1.3463 3.7023 -9.0165 1.7107 3.9931 -1.6133 1.9386 0.9570 3.2713 1.0213 -1.4873 6.7810 4.5795 -19.9631 -3.6498 5.6404 25.4038 -1.5653 2.8255 11.9668 0.0000 -0.0000 0.0000 -88.0795 0.4066 35.9185 11.8712 -19.6112 -2.0589 -0.0000 -0.0000 17.9280 15.4212 -25.7706 -6.8387 -7.1250 0.0000 -0.0000 -8.6596 3.6376 8.1884 0.0000 -0.0000 0.0000 87.6852 -3.3278 38.6621 -16.0083 25.5319 -3.6495 0.0000 0.0000 7.4613 -12.8908 -30.3219 6.5909 7.1250 -0.0000 -0.0000 21.1403 -59.6790 -7.7872
-30.4216 17.0401 1.2500 86.7613 84.0201 86.6547 0.0000 0.0000 0.0000 -24.3400 6.1001 7.7732 0.0076 -0.5646 -1.5515 0.2377 6.0436 -13.3764 0.2552 -3.2506 -8.9772 0.0000 0.0000 0.0000 8.6064 -8.8146 5.9322 -0.0465 -1.3924 3.8291 -0.9736 2.2822 -18.0209 -0.0537 -1.4958 4.1141 -9.0440 1.6964 3.9573 -1.6183 1.9260 0.9998 3.2840 1.0116 -1.4216 6.7961 4.5372 -19.8647 -3.7580 5.6108 25.3313 -1.6149 2.8008 11.9212 -0.0000 0.0000 0.0000 -88.1389 0.3022 35.7099 11.7793 -19.4729 -2.0281 -0.0000 -0.0000 18.3428 15.6626 -25.6687 -6.9248 -7.1250 0.0000 -0.0000 -8.5062 3.7050 8.0293 -0.0000 0.0000 0.0000 87.6790 -3.2368 38.7051 -15.9991 25.5194 -3.6456 0.0000 0.0000 7.4632 -12.9247 -30.2621 6.5969 7.1250 -0.0000 -0.0000 21.0588 -59.6315 -7.7314
-30.4199 17.0397 1.2502 86.4579 83.9364 86.3798 0.0000 0.0000 0.0000 -24.4475 6.0728 7.7719 0.0079 -0.5755 -1.5815 0.2426 6.0430 -13.4519 0.2443 -3.1810 -8.7830 0.0000 0.0000 0.0000 8.5088 -8.7914 5.8985 -0.0469 -1.3974 3.8429 -0.9781 2.2888 -18.0622 -0.0638 -1.6294 4.4826 -9.1345 1.7024 3.9063 -1.6400 1.9360 0.9918 3.3124 1.0167 -1.4046 6.9063 4.5781 -19.8016 -3.9040 5.6782 25.2799 -1.6776 2.8234 11.9017 -0.0000 0.0000 0.0000 -88.1431 0.3426 35.5723 11.7773 -19.4697 -2.0274 -0.0000 -0.0000 18.3677 17.6616 -25.7426 -7.8736 -7.1250 0.0000 -0.0000 -7.3007 3.3265 6.9221 -0.0000 0.0000 0.0000 87.6709 -3.2339 38.7543 -16.0199 25.5476 -3.6545 0.0000 0.0000 7.4251 -12.8914 -30.3192 6.5906 7.1250 -0.0000 -0.0000 21.1375 -59.6766 -7.7849
-30.4198 17.0424 1.2511 86.6629 83.8761 86.4843 0.0000 0.0000 0.0000 -24.5080 6.1166 7.8649 0.0079 -0.5756 -1.5816 0.2393 6.0556 -13.4127 0.2293 -3.0822 -8.5076 0.0000 0.0000 0.0000 8.3803 -8.9259 5.9705 -0.0461 -1.3850 3.8089 -0.9717 2.3529 -17.9871 -0.0611 -1.5952 4.3882 -9.2156 1.7057 4.0083 -1.6522 1.9285 1.0215 3.3426 1.0140 -1.4319 6.9234 4.5718 -19.7307 -3.9574 5.6822 25.2288 -1.7009 2.8208 11.8704 -0.0000 0.0000 0.0000 -88.1298 0.3585 35.7534 11.8079 -19.5159 -2.0377 -0.0000 -0.0000 18.1235 17.0723 -25.5271 -7.5390 -7.1250 0.0000 -0.0000 -7.6403 3.6371 7.2057 -0.0000 0.0000 0.0000 87.6892 -3.2294 38.7344 -16.0133 25.5387 -3.6517 0.0000 0.0000 7.4504 -12.9244 -30.3535 6.6147 7.1250 -0.0000 -0.0000 21.1295 -59.7161 -7.8018
-30.4196 17.0416 1.2495 87.0728 83.9223 86.8719 0.0000 0.0000 0.0000 -24.4730 6.0891 7.8944 0.0079 -0.5738 -1.5767 0.2339 6.1073 -13.3775 0.2489 -3.2102 -8.8644 0.0000 0.0000 0.0000 8.3653 -9.1328 5.9207 -0.0457 -1.3798 3.7944 -0.9581 2.4737 -17.8324 -0.0537 -1.4952 4.1124 -9.1512 1.6915 4.0317 -1.6424 1.9099 1.0301 3.3179 1.0041 -1.4321 6.9438 4.6203 -19.7793 -3.9315 5.7377 25.2895 -1.6845 2.8508 11.9071 0.0000 0.0000 0.0000 -88.1736 0.2847 35.5755 11.7136 -19.3737 -2.0063 -0.0000 -0.0000 18.2556 16.6672 -25.9164 -7.4549 -7.1250 0.0000 -0.0000 -7.9168 3.3048 7.5206 0.0000 0.0000 0.0000 87.7030 -3.2055 38.6725 -15.9601 25.4666 -3.6288 0.0000 0.0000 7.5232 -12.9454 -30.1978 6.5952 7.1250 -0.0000 -0.0000 20.9876 -59.5766 -7.6761
-30.4197 17.0410 1.2477 87.5331 83.9095 87.3705 0.0000 0.0000 0.0000 -24.5003 6.0773 7.8327 0.0076 -0.5643 -1.5508 0.2293 6.1175 -13.3143 0.2895 -3.4601 -9.5625 0.0000 0.0000 0.0000 8.3098 -9.2593 5.8447 -0.0466 -1.3933 3.8317 -0.9562 2.5460 -17.7996 -0.0577 -1.5507 4.2654 -9.1495 1.6698 3.9964 -1.6446 1.8846 1.0220 3.3170 0.9912 -1.4174 6.8952 4.6390 -19.8229 -3.8330 5.7549 25.3796 -1.6359 2.8670 11.9469 -0.0000 0.0000 0.0000 -88.2166 0.2670 35.4945 11.7119 -19.3711 -2.0057 -0.0000 -0.0000 18.2658 17.8031 -25.8643 -7.9745 -7.1250 0.0000 -0.0000 -7.2255 3.1803 6.8692 -0.0000 0.0000 0.0000 87.6765 -3.1991 38.7047 -15.9457 25.4470 -3.6226 0.0000 0.0000 7.5336 -13.0168 -30.0867 6.6106 7.1250 -0.0000 -0.0000 20.8283 -59.4899 -7.5711
-30.4194 17.0428 1.2474 87.4552 83.8431 87.2825 0.0000 0.0000 0.0000 -24.5671 6.1362 7.8161 0.0076 -0.5618 -1.5438 0.2245 6.1019 -13.2237 0.2702 -3.3435 -9.2365 0.0000 0.0000 0.0000 8.1643 -9.4362 5.7890 -0.0482 -1.4165 3.8955 -0.9569 2.7253 -17.7717 -0.0787 -1.8097 4.9800 -9.2108 1.6766 3.9868 -1.6621 1.8941 1.0378 3.3327 0.9952 -1.3980 6.8328 4.6389 -19.7746 -3.7444 5.7516 25.3528 -1.5937 2.8716 11.9215 0.0000 -0.0000 0.0000 -88.2151 0.2624 35.5116 11.7045 -19.3599 -2.0032 -0.0000 -0.0000 18.2488 16.4600 -25.6926 -7.2994 -7.1250 0.0000 -0.0000 -8.0247 3.5626 7.5866 0.0000 -0.0000 0.0000 87.6472 -3.2048 38.7859 -15.9761 25.4882 -3.6357 0.0000 0.0000 7.5275 -13.1674 -30.1639 6.7045 7.1250 -0.0000 -0.0000 20.7295 -59.5961 -7.5863
-30.4196 17.0422 1.2482 87.3969 83.8370 87.1806 0.0000 0.0000 0.0000 -24.5564 6.1912 7.8500 0.0076 -0.5616 -1.5433 0.2315 6.0376 -13.2717 0.2376 -3.1367 -8.6596 0.0000 0.0000 0.0000 8.1437 -9.4245 5.8403 -0.0480 -1.4132 3.8866 -0.9612 2.8662 -17.7871 -0.1098 -2.1361 5.8821 -9.1488 1.6767 4.0404 -1.7207 1.8916 1.0461 3.2364 0.9948 -1.4152 6.9099 4.6317 -19.6835 -3.7414 5.7188 25.2931 -1.6124 2.8657 11.8810 -0.0000 -0.0000 0.0000 -88.0959 0.2675 35.6130 11.7058 -19.3620 -2.0037 -0.0000 -0.0000 18.1437 17.0095 -25.6343 -7.5390 -7.1250 0.0000 -0.0000 -7.6870 3.5381 7.2647 -0.0000 -0.0000 0.0000 87.7462 -3.2118 38.7708 -15.9777 25.4904 -3.6363 0.0000 0.0000 7.5981 -13.2990 -30.2390 6.7885 7.1250 -0.0000 -0.0000 20.6487 -59.6963 -7.6050
